<svg width="30" height="30" viewBox="0 0 30 30" fill="none" xmlns="http://www.w3.org/2000/svg">
<g clip-path="url(#clip0)">
<path d="M29.7821 5.02516C29.604 4.81142 29.3396 4.68767 29.0621 4.68767H6.29994C6.00932 4.68767 5.7337 4.82267 5.55558 5.05329C5.37933 5.28578 5.31934 5.58578 5.39433 5.86702L8.39429 17.0794C8.50491 17.4918 8.87616 17.775 9.2999 17.775C9.3149 17.775 9.33177 17.775 9.34677 17.7731L27.234 16.8731C27.6671 16.8506 28.0309 16.5337 28.1096 16.1062L29.9846 5.7939C30.0352 5.51828 29.9602 5.23703 29.7821 5.02516Z" fill="#627077"/>
<path d="M23.4372 14.0625C22.9197 14.0625 22.4998 13.6425 22.4998 13.125V9.37509C22.4998 8.8576 22.9197 8.43761 23.4372 8.43761C23.9547 8.43761 24.3747 8.8576 24.3747 9.37509V13.125C24.3747 13.6425 23.9547 14.0625 23.4372 14.0625Z" fill="#FAFAFA"/>
<path d="M17.8122 14.0625C17.2947 14.0625 16.8748 13.6425 16.8748 13.125V9.37509C16.8748 8.8576 17.2947 8.43761 17.8122 8.43761C18.3297 8.43761 18.7497 8.8576 18.7497 9.37509V13.125C18.7497 13.6425 18.3297 14.0625 17.8122 14.0625Z" fill="#FAFAFA"/>
<path d="M12.1874 14.0625C11.6699 14.0625 11.2499 13.6425 11.2499 13.125V9.37509C11.2499 8.8576 11.6699 8.43761 12.1874 8.43761C12.7049 8.43761 13.1248 8.8576 13.1248 9.37509V13.125C13.1248 13.6425 12.7049 14.0625 12.1874 14.0625Z" fill="#FAFAFA"/>
<path d="M12.1873 29.0623C13.7406 29.0623 14.9998 27.8031 14.9998 26.2498C14.9998 24.6966 13.7406 23.4374 12.1873 23.4374C10.6341 23.4374 9.37488 24.6966 9.37488 26.2498C9.37488 27.8031 10.6341 29.0623 12.1873 29.0623Z" fill="#627077"/>
<path d="M23.4371 29.0623C24.9904 29.0623 26.2495 27.8031 26.2495 26.2498C26.2495 24.6966 24.9904 23.4374 23.4371 23.4374C21.8838 23.4374 20.6246 24.6966 20.6246 26.2498C20.6246 27.8031 21.8838 29.0623 23.4371 29.0623Z" fill="#627077"/>
<path d="M25.3121 21.5624H10.3123C9.88672 21.5624 9.51548 21.2774 9.40673 20.8668L4.58618 2.8127H0.937485C0.419993 2.8127 0 2.39271 0 1.87521C0 1.35772 0.419993 0.937729 0.937485 0.937729H5.30617C5.73179 0.937729 6.10303 1.22272 6.21178 1.63334L11.0323 19.6874H25.3121C25.8296 19.6874 26.2496 20.1074 26.2496 20.6249C26.2496 21.1424 25.8296 21.5624 25.3121 21.5624Z" fill="#627077"/>
</g>
<defs>
<clipPath id="clip0">
<rect width="30" height="30" fill="white"/>
</clipPath>
</defs>
</svg>
